<svg width="69" height="68" viewBox="0 0 69 68" fill="none" xmlns="http://www.w3.org/2000/svg">
<path d="M50.8942 12.6231C50.6693 12.6231 50.4445 12.5669 50.2477 12.4544C44.851 9.67174 40.1851 8.49121 34.5916 8.49121C29.0262 8.49121 23.742 9.81228 18.9355 12.4544C18.2609 12.8198 17.4177 12.5669 17.0242 11.8923C16.6588 11.2177 16.9117 10.3463 17.5863 9.98093C22.8144 7.14203 28.5484 5.68042 34.5916 5.68042C40.5786 5.68042 45.8067 7.00149 51.5407 9.95282C52.2434 10.3182 52.4963 11.1615 52.1309 11.8361C51.878 12.342 51.4001 12.6231 50.8942 12.6231ZM10.6718 27.3797C10.3907 27.3797 10.1096 27.2954 9.85665 27.1268C9.21017 26.677 9.06963 25.8057 9.51936 25.1592C12.302 21.2241 15.8436 18.1322 20.0598 15.9679C28.8857 11.4144 40.1851 11.3863 49.0391 15.9398C53.2553 18.1041 56.7969 21.1679 59.5795 25.0749C60.0293 25.6933 59.8887 26.5927 59.2423 27.0424C58.5958 27.4922 57.7244 27.3516 57.2747 26.7051C54.745 23.1635 51.5407 20.3809 47.7461 18.4414C39.6791 14.3095 29.3635 14.3096 21.3247 18.4695C17.502 20.4371 14.2977 23.2479 11.768 26.7895C11.5431 27.183 11.1215 27.3797 10.6718 27.3797ZM28.2392 61.306C27.8738 61.306 27.5084 61.1654 27.2554 60.8844C24.8101 58.439 23.489 56.8649 21.6058 53.4639C19.6663 50.0066 18.6544 45.7904 18.6544 41.265C18.6544 32.917 25.7938 26.1149 34.5635 26.1149C43.3332 26.1149 50.4726 32.917 50.4726 41.265C50.4726 42.0521 49.8542 42.6704 49.0672 42.6704C48.2802 42.6704 47.6618 42.0521 47.6618 41.265C47.6618 34.4629 41.7872 28.9257 34.5635 28.9257C27.3398 28.9257 21.4652 34.4629 21.4652 41.265C21.4652 45.3126 22.3647 49.0509 24.0793 52.0866C25.8782 55.319 27.1149 56.6963 29.2792 58.8887C29.8133 59.4509 29.8133 60.3222 29.2792 60.8844C28.97 61.1654 28.6046 61.306 28.2392 61.306ZM48.3926 56.106C45.0478 56.106 42.0964 55.2628 39.6791 53.6044C35.4911 50.7655 32.9895 46.1558 32.9895 41.265C32.9895 40.478 33.6078 39.8596 34.3949 39.8596C35.1819 39.8596 35.8003 40.478 35.8003 41.265C35.8003 45.2283 37.824 48.9666 41.2532 51.2715C43.2488 52.6206 45.5818 53.2671 48.3926 53.2671C49.0672 53.2671 50.1915 53.1828 51.3158 52.986C52.0747 52.8455 52.8055 53.3514 52.9461 54.1385C53.0866 54.8974 52.5807 55.6282 51.7937 55.7687C50.1915 56.0779 48.7861 56.106 48.3926 56.106ZM42.7429 61.8962C42.6305 61.8962 42.4899 61.8681 42.3775 61.84C37.9083 60.6033 34.9851 58.9449 31.9214 55.9374C27.9863 52.0304 25.8219 46.8304 25.8219 41.265C25.8219 36.7116 29.7008 33.0013 34.4792 33.0013C39.2575 33.0013 43.1364 36.7116 43.1364 41.265C43.1364 44.2726 45.7505 46.718 48.9829 46.718C52.2153 46.718 54.8293 44.2726 54.8293 41.265C54.8293 30.6684 45.6942 22.0673 34.4511 22.0673C26.4684 22.0673 19.1604 26.5084 15.8717 33.3948C14.7755 35.6716 14.2134 38.3418 14.2134 41.265C14.2134 43.4575 14.4101 46.9147 16.0966 51.412C16.3777 52.1428 16.0123 52.9579 15.2815 53.2109C14.5507 53.492 13.7355 53.0985 13.4826 52.3958C12.1053 48.7136 11.4307 45.0596 11.4307 41.265C11.4307 37.8921 12.0772 34.8283 13.342 32.1581C17.0804 24.316 25.3722 19.2284 34.4511 19.2284C47.2402 19.2284 57.6401 29.0943 57.6401 41.2369C57.6401 45.7904 53.7612 49.5007 48.9829 49.5007C44.2045 49.5007 40.3256 45.7904 40.3256 41.2369C40.3256 38.2294 37.7116 35.784 34.4792 35.784C31.2468 35.784 28.6327 38.2294 28.6327 41.2369C28.6327 46.0434 30.4879 50.5407 33.8889 53.9136C36.5592 56.5557 39.117 58.0174 43.0802 59.1136C43.8391 59.3103 44.2607 60.0973 44.064 60.8282C43.9234 61.4746 43.3332 61.8962 42.7429 61.8962Z" fill="white"/>
</svg>
